<svg xmlns="http://www.w3.org/2000/svg" fill="#ea4a87" viewBox="0 0 142.77 219.43"><g class="supersmith-icon"><path d="M100.93 0c15.62 5.21 26.58 16.28 26.58 35.52 0 22.73-17.32 40-24.89 44.91-1.89 1.08-3 1.62-4.06 1.62a2.67 2.67 0 01-2.43-2.71c0-1.08.54-1.9 1.35-3.25a72.11 72.11 0 0010-37.34c0-24.35-11.9-31.92-32.47-31.92-29.22 0-58.44 26.78-58.44 72.51 0 65.74 96.32 49 96.32 99.83 0 17.31-9 32.08-24.2 40.25h54.06V0zM50.69 0H0v43.32C10.18 21 29.56 6.4 50.69 0z"/><path d="M10.64 194.6c0-14.07 15.42-23.81 20.56-23.81 1.62 0 2.43.81 2.43 1.9 0 2.71-4.6 6.49-4.6 14.07 0 13 11.09 27.06 35.17 27.06 20.83 0 34.09-11.9 34.09-30.3 0-31.27-74.18-29-98.3-72.83v108.74h29.25c-12.1-6.36-18.6-16.13-18.6-24.83z"/></g>  </svg>
