<svg xmlns="http://www.w3.org/2000/svg" viewBox="0 0 24 24">
  <path d="M3.999 11.931C3.926 9.768 5.932 8 8.096 8H14v3.28c0 .641.774.961 1.227.508L21 6 15.251.216A.733.733 0 0014 .735V4H8C3.622 4 .053 7.536 0 11.902c-.011.923.724 1.904 1.633 2.066a2.003 2.003 0 002.366-2.037zm16.002.138C20.073 14.232 18.068 16 15.903 16H10v-3.28a.718.718 0 00-1.227-.508L3 18l5.749 5.784A.733.733 0 0010 23.265V20h6c4.378 0 7.947-3.536 8-7.902.011-.923-.724-1.904-1.633-2.066a2.002 2.002 0 00-2.366 2.037z"/>
</svg>
